<?xml version="1.0" encoding="UTF-8"?>
<!DOCTYPE svg PUBLIC "-//W3C//DTD SVG 1.1//EN" "http://www.w3.org/Graphics/SVG/1.1/DTD/svg11.dtd">
<!-- Creator: CorelDRAW -->
<svg xmlns="http://www.w3.org/2000/svg" xml:space="preserve" width="4.2333mm" height="4.2333mm" version="1.1" style="shape-rendering:geometricPrecision; text-rendering:geometricPrecision; image-rendering:optimizeQuality; fill-rule:evenodd; clip-rule:evenodd"
viewBox="0 0 6.42 6.42"
 xmlns:xlink="http://www.w3.org/1999/xlink"
 xmlns:xodm="http://www.corel.com/coreldraw/odm/2003">
 <defs>
  <style type="text/css">
   <![CDATA[
    .fil7 {fill:none}
    .fil4 {fill:white}
    .fil0 {fill:#006666}
    .fil1 {fill:#041A25}
    .fil2 {fill:#061A26}
    .fil3 {fill:#091A25}
    .fil6 {fill:white;fill-rule:nonzero}
    .fil5 {fill:#373535;fill-rule:nonzero}
   ]]>
  </style>
 </defs>
 <g id="Layer_x0020_1">
  <metadata id="CorelCorpID_0Corel-Layer"/>
  <g id="_105553153293248">
   <g>
    <path class="fil0" d="M0.36 2.61l0.53 0c0.04,0.1 0.14,0.29 0.23,0.41l0.57 0 0 0.16 -0.71 0 0 0.17 0.71 0 0 0.15 -0.31 0 -0.14 0.23 -0.11 0.17 -0.5 0 0 0.18c0,-0 0.01,-0 0.01,-0l0.62 -0c0.09,-0.11 0.18,-0.29 0.26,-0.4l0.61 0c0.17,-0.3 0.15,-0.29 0.35,-0.24 0.43,0.11 0.33,0.11 0.63,0.33 0.13,0.1 0.06,0.15 0.05,0.28 0.15,0.05 0.19,0.11 0.29,0.01 -0.02,-0.23 -0.2,-0.08 -0.19,-0.29 0.18,-0.05 0.28,0.25 0.4,0.15 0.12,-0.11 -0.04,-0.12 -0.14,-0.24 -0.06,-0.08 -0.07,-0.17 0.18,0.01 0,0 0.11,0.08 0.11,0.08 0.17,0.09 0.22,-0.04 0.07,-0.16 -0.11,-0.09 -0.13,-0.05 -0.17,-0.18 0.22,0.03 0.27,0.23 0.4,0.13 0.09,-0.13 -0.22,-0.27 -0.32,-0.35 -0.24,-0.17 -0.23,-0.21 -0.48,-0.03 -0.13,0.09 -0.45,0.17 -0.47,-0.06 -0.02,-0.21 0.26,-0.26 0.27,-0.41 -0.28,-0.03 -0.32,0.22 -0.85,0.14 -0.36,-0.05 -0.64,-0.03 -0.97,-0.07l-0.24 -0.38 -0.66 -0.01 0 0.19z"/>
    <path class="fil1" d="M3.21 2.8c-0.17,0.17 -0.34,0.16 -0.29,0.37 0.38,0.06 0.38,-0.39 0.82,-0.08 0.11,0.08 0.23,0.17 0.34,0.24l0.15 0.14 -0.01 0.33 0.71 0 0.35 0.36 0.51 0 0 -0.19 -0.38 -0 -0.4 -0.4 -0.23 -0.01 0 -0.12 0.31 0c0.25,0 0.32,-0.02 0.38,0.01l0 -0.16 -0.69 0 0 -0.13 0.52 0 0.27 -0.4 0.49 0 0 -0.22 -0.65 0 -0.26 0.39c-0.28,0.01 -0.85,0.04 -1.11,-0.01 -0.15,-0.03 -0.27,-0.11 -0.39,-0.17 -0.15,-0.08 -0.33,-0.09 -0.46,0.03z"/>
    <path class="fil2" d="M2.7 3.55c-0.37,-0.07 -0.27,0.58 -0.04,0.22 0.07,-0.1 0.07,-0.11 0.04,-0.22z"/>
    <path class="fil2" d="M2.68 3.96c0.21,0.03 0.26,-0.21 0.21,-0.26 -0.12,-0.13 -0.23,0.13 -0.21,0.26z"/>
    <path class="fil3" d="M2.32 3.78c0.13,-0.09 0.19,-0.34 0.01,-0.29 -0.03,0.01 -0.24,0.22 -0.01,0.29z"/>
    <path class="fil3" d="M2.91 4.07c0.2,0.02 0.22,-0.19 0.14,-0.23 -0.09,-0.04 -0.18,0.12 -0.14,0.23z"/>
    <path class="fil0" d="M0.82 3.08c0.12,0 0.21,0.09 0.21,0.21 0,0.12 -0.09,0.21 -0.21,0.21 -0.12,0 -0.21,-0.09 -0.21,-0.21 0,-0.12 0.09,-0.21 0.21,-0.21z"/>
    <path class="fil4" d="M0.82 3.2c0.05,0 0.09,0.04 0.09,0.09 0,0.05 -0.04,0.09 -0.09,0.09 -0.05,0 -0.09,-0.04 -0.09,-0.09 0,-0.05 0.04,-0.09 0.09,-0.09z"/>
    <path class="fil0" d="M0.21 2.28c0.12,0 0.21,0.09 0.21,0.21 0,0.12 -0.09,0.21 -0.21,0.21 -0.12,0 -0.21,-0.09 -0.21,-0.21 0,-0.12 0.09,-0.21 0.21,-0.21z"/>
    <path class="fil4" d="M0.21 2.41c0.05,0 0.09,0.04 0.09,0.09 0,0.05 -0.04,0.09 -0.09,0.09 -0.05,0 -0.09,-0.04 -0.09,-0.09 0,-0.05 0.04,-0.09 0.09,-0.09z"/>
    <path class="fil0" d="M0.47 3.79c0.12,0 0.21,0.09 0.21,0.21 0,0.12 -0.09,0.21 -0.21,0.21 -0.12,0 -0.21,-0.09 -0.21,-0.21 0,-0.12 0.09,-0.21 0.21,-0.21z"/>
    <path class="fil4" d="M0.47 3.91c0.05,0 0.09,0.04 0.09,0.09 0,0.05 -0.04,0.09 -0.09,0.09 -0.05,0 -0.09,-0.04 -0.09,-0.09 0,-0.05 0.04,-0.09 0.09,-0.09z"/>
    <path class="fil1" d="M5.6 3.16c-0.12,0 -0.21,0.09 -0.21,0.21 0,0.12 0.09,0.21 0.21,0.21 0.12,0 0.21,-0.09 0.21,-0.21 0,-0.12 -0.09,-0.21 -0.21,-0.21z"/>
    <path class="fil4" d="M5.6 3.29c-0.05,0 -0.09,0.04 -0.09,0.09 0,0.05 0.04,0.09 0.09,0.09 0.05,0 0.09,-0.04 0.09,-0.09 0,-0.05 -0.04,-0.09 -0.09,-0.09z"/>
    <path class="fil1" d="M6.21 2.44c-0.12,0 -0.21,0.09 -0.21,0.21 0,0.12 0.09,0.21 0.21,0.21 0.12,0 0.21,-0.09 0.21,-0.21 0,-0.12 -0.09,-0.21 -0.21,-0.21z"/>
    <path class="fil4" d="M6.21 2.57c-0.05,0 -0.09,0.04 -0.09,0.09 0,0.05 0.04,0.09 0.09,0.09 0.05,0 0.09,-0.04 0.09,-0.09 0,-0.05 -0.04,-0.09 -0.09,-0.09z"/>
    <path class="fil1" d="M5.95 3.88c-0.12,0 -0.21,0.09 -0.21,0.21 0,0.12 0.09,0.21 0.21,0.21 0.12,0 0.21,-0.09 0.21,-0.21 0,-0.12 -0.09,-0.21 -0.21,-0.21z"/>
    <path class="fil4" d="M5.95 4c-0.05,0 -0.09,0.04 -0.09,0.09 0,0.05 0.04,0.09 0.09,0.09 0.05,0 0.09,-0.04 0.09,-0.09 0,-0.05 -0.04,-0.09 -0.09,-0.09z"/>
   </g>
   <g>
    <path class="fil1" d="M5.26 4.37c-0.4,0.69 -1.15,1.15 -2,1.15 -0.85,0 -1.6,-0.46 -2,-1.15l0.57 0c0.34,0.42 0.85,0.68 1.43,0.68 0.58,0 1.1,-0.27 1.43,-0.68l0.57 0z"/>
    <path class="fil0" d="M3.26 0.9c0.95,0 1.77,0.57 2.12,1.39l-0.53 0c-0.32,-0.55 -0.92,-0.92 -1.6,-0.92 -0.68,0 -1.28,0.37 -1.6,0.92l-0.53 0c0.36,-0.82 1.17,-1.39 2.12,-1.39z"/>
   </g>
   <path class="fil5" d="M2.91 2.45l0 0.04c0,0.02 0,0.03 0.01,0.03 0,0 0.02,0.01 0.04,0.01l0.07 0 0 0.12 -0.17 0c-0.06,0 -0.1,-0.01 -0.12,-0.02 -0.02,-0.02 -0.02,-0.05 -0.02,-0.11l0 -0.06c-0.1,-0.01 -0.17,-0.05 -0.23,-0.13 -0.06,-0.07 -0.09,-0.16 -0.09,-0.27 0,-0.12 0.04,-0.22 0.11,-0.29 0.08,-0.07 0.18,-0.11 0.31,-0.11 0.13,0 0.23,0.04 0.31,0.11 0.08,0.07 0.11,0.17 0.11,0.29 0,0.11 -0.03,0.2 -0.09,0.27 -0.06,0.07 -0.14,0.11 -0.24,0.13zm-0.09 -0.64c-0.06,0 -0.1,0.02 -0.14,0.07 -0.03,0.04 -0.05,0.1 -0.05,0.18 0,0.08 0.02,0.13 0.05,0.18 0.03,0.04 0.08,0.07 0.14,0.07 0.06,0 0.1,-0.02 0.14,-0.07 0.03,-0.04 0.05,-0.1 0.05,-0.18 0,-0.07 -0.02,-0.13 -0.05,-0.18 -0.03,-0.04 -0.08,-0.07 -0.14,-0.07zm0.88 0.05l-0.09 0.28 0.19 0 -0.09 -0.28 -0.01 0zm-0.13 -0.18l0.26 0 0.29 0.75 -0.23 0 -0.05 -0.14 -0.29 0 -0.05 0.14 -0.23 0 0.29 -0.75z"/>
   <path class="fil6" d="M1.76 4.85c-0.03,-0.03 -0.04,-0.05 -0.04,-0.08 -0,-0.03 0.01,-0.05 0.03,-0.08l0.12 -0.13 0.05 0.05 -0.12 0.12c-0.01,0.01 -0.02,0.03 -0.02,0.04 -0,0.01 0,0.02 0.02,0.03 0.01,0.01 0.02,0.02 0.03,0.01 0.01,-0 0.02,-0.01 0.04,-0.02l0.12 -0.12 0.05 0.05 -0.12 0.13c-0.02,0.02 -0.05,0.04 -0.08,0.04 -0.03,-0 -0.05,-0.01 -0.08,-0.04zm0.45 0.32l-0.06 -0.04 0.02 -0.22 -0.1 0.16 -0.05 -0.03 0.15 -0.23 0.07 0.05 -0.01 0.18 0.09 -0.13 0.05 0.03 -0.15 0.23zm0.45 -0.01c-0,0.01 -0.01,0.02 -0.02,0.03 -0.01,0.01 -0.02,0.02 -0.03,0.02 -0.01,0 -0.01,0 -0.02,0.01 -0.01,0 -0.01,0 -0.02,0 -0.01,0 -0.02,-0 -0.02,-0 -0.01,-0 -0.02,-0 -0.03,-0.01l-0.03 -0.01 -0.03 0.08 -0.06 -0.03 0.1 -0.26 0.1 0.04c0.01,0.01 0.03,0.01 0.04,0.02 0.01,0.01 0.02,0.02 0.02,0.02 0.01,0.01 0.01,0.02 0.01,0.03 0,0.01 -0,0.03 -0.01,0.04zm-0.07 -0.03c0,-0.01 0,-0.01 0,-0.02 -0,-0.01 -0,-0.01 -0.01,-0.02 -0,-0.01 -0.01,-0.01 -0.02,-0.01 -0.01,-0 -0.01,-0.01 -0.02,-0.01l-0.01 -0 -0.03 0.08 0 0c0.01,0 0.01,0 0.02,0.01 0.01,0 0.01,0 0.01,0 0,0 0.01,0 0.01,0 0,-0 0.01,-0 0.01,-0 0.01,-0 0.01,-0.01 0.01,-0.01 0,-0 0.01,-0.01 0.01,-0.02zm0.35 0.28l-0.18 -0.03 0.05 -0.27 0.07 0.01 -0.04 0.22 0.11 0.02 -0.01 0.05zm0.29 0.02c-0.04,-0 -0.07,-0.01 -0.08,-0.03 -0.02,-0.02 -0.03,-0.05 -0.03,-0.08l0.01 -0.18 0.07 0 -0.01 0.17c-0,0.02 0,0.03 0.01,0.04 0.01,0.01 0.02,0.01 0.03,0.02 0.02,0 0.03,-0 0.04,-0.01 0.01,-0.01 0.01,-0.02 0.01,-0.04l0.01 -0.17 0.07 0 -0.01 0.18c-0,0.03 -0.01,0.06 -0.03,0.08 -0.02,0.02 -0.05,0.03 -0.09,0.02zm0.54 -0.08c-0.01,0.01 -0.03,0.01 -0.04,0.02 -0.02,0.01 -0.04,0.01 -0.05,0.02 -0.04,0.01 -0.08,0 -0.11,-0.02 -0.03,-0.02 -0.05,-0.05 -0.06,-0.1 -0.01,-0.04 -0,-0.08 0.02,-0.11 0.02,-0.03 0.05,-0.05 0.1,-0.06 0.02,-0 0.04,-0.01 0.06,-0 0.02,0 0.03,0 0.05,0.01l0.01 0.06 -0.01 0c-0,-0 -0.01,-0 -0.02,-0.01 -0.01,-0 -0.01,-0.01 -0.02,-0.01 -0.01,-0 -0.02,-0 -0.03,-0.01 -0.01,-0 -0.02,-0 -0.03,0 -0.01,0 -0.02,0.01 -0.03,0.01 -0.01,0.01 -0.02,0.01 -0.02,0.02 -0.01,0.01 -0.01,0.02 -0.01,0.03 -0,0.01 -0,0.03 0,0.04 0.01,0.03 0.02,0.05 0.04,0.07 0.02,0.01 0.04,0.02 0.07,0.01 0,-0 0.01,-0 0.01,-0 0,-0 0.01,-0 0.01,-0l-0.01 -0.05 -0.05 0.01 -0.01 -0.05 0.12 -0.02 0.02 0.13zm0.4 -0.14c-0.01,0.01 -0.02,0.02 -0.04,0.03 -0.02,0.01 -0.03,0.02 -0.05,0.03 -0.04,0.02 -0.08,0.02 -0.11,0 -0.03,-0.01 -0.06,-0.04 -0.08,-0.08 -0.02,-0.04 -0.02,-0.08 -0,-0.11 0.01,-0.03 0.04,-0.06 0.08,-0.08 0.02,-0.01 0.04,-0.01 0.05,-0.01 0.02,-0 0.03,-0 0.05,0l0.02 0.06 -0.01 0c-0,-0 -0.01,-0 -0.02,-0 -0.01,-0 -0.01,-0 -0.02,-0 -0.01,-0 -0.02,-0 -0.03,-0 -0.01,0 -0.02,0 -0.03,0.01 -0.01,0 -0.02,0.01 -0.03,0.02 -0.01,0.01 -0.01,0.02 -0.02,0.03 -0,0.01 -0.01,0.02 -0.01,0.03 0,0.01 0,0.03 0.01,0.04 0.01,0.03 0.03,0.05 0.05,0.06 0.02,0.01 0.04,0.01 0.07,-0 0,-0 0.01,-0 0.01,-0 0,-0 0.01,-0 0.01,-0l-0.02 -0.05 -0.05 0.02 -0.02 -0.05 0.11 -0.04 0.05 0.13zm0.18 -0.08l-0.15 -0.23 0.16 -0.1 0.03 0.04 -0.1 0.06 0.03 0.04 0.09 -0.06 0.03 0.04 -0.09 0.06 0.04 0.06 0.1 -0.06 0.03 0.04 -0.16 0.1zm0.4 -0.48c0.02,0.02 0.03,0.04 0.04,0.06 0.01,0.02 0.01,0.04 0,0.06 -0,0.02 -0.01,0.03 -0.02,0.05 -0.01,0.01 -0.02,0.03 -0.04,0.04l-0.06 0.06 -0.19 -0.2 0.06 -0.06c0.01,-0.01 0.03,-0.03 0.04,-0.04 0.01,-0.01 0.03,-0.02 0.05,-0.02 0.02,-0 0.04,-0 0.06,0 0.02,0.01 0.04,0.02 0.06,0.04zm-0.05 0.05c-0.01,-0.01 -0.03,-0.02 -0.04,-0.03 -0.01,-0.01 -0.03,-0.01 -0.04,-0 -0.01,0 -0.02,0.01 -0.03,0.01 -0.01,0.01 -0.02,0.02 -0.03,0.03l-0 0 0.12 0.12 0 -0c0.01,-0.01 0.02,-0.02 0.03,-0.03 0.01,-0.01 0.01,-0.02 0.01,-0.03 0,-0.01 0,-0.03 -0,-0.04 -0,-0.01 -0.01,-0.03 -0.03,-0.04z"/>
  </g>
  <rect class="fil7" x="-0" y="0" width="6.42" height="6.42"/>
 </g>
</svg>
